<mxfile host="Electron" agent="Mozilla/5.0 (X11; Linux x86_64) AppleWebKit/537.36 (KHTML, like Gecko) draw.io/24.7.8 Chrome/128.0.6613.36 Electron/32.0.1 Safari/537.36" version="24.7.8">
  <diagram id="C5RBs43oDa-KdzZeNtuy" name="Page-1">
    <mxGraphModel dx="762" dy="743" grid="1" gridSize="10" guides="1" tooltips="1" connect="1" arrows="1" fold="1" page="1" pageScale="1" pageWidth="827" pageHeight="1169" math="0" shadow="0">
      <root>
        <mxCell id="WIyWlLk6GJQsqaUBKTNV-0" />
        <mxCell id="WIyWlLk6GJQsqaUBKTNV-1" parent="WIyWlLk6GJQsqaUBKTNV-0" />
        <mxCell id="WPUOntc3Nxlga1c-zfr1-58" style="edgeStyle=orthogonalEdgeStyle;rounded=0;orthogonalLoop=1;jettySize=auto;html=1;entryX=0.5;entryY=0;entryDx=0;entryDy=0;" edge="1" parent="WIyWlLk6GJQsqaUBKTNV-1" source="WPUOntc3Nxlga1c-zfr1-0" target="WPUOntc3Nxlga1c-zfr1-2">
          <mxGeometry relative="1" as="geometry" />
        </mxCell>
        <mxCell id="WPUOntc3Nxlga1c-zfr1-0" value="Start" style="ellipse;whiteSpace=wrap;html=1;fontSize=16;" vertex="1" parent="WIyWlLk6GJQsqaUBKTNV-1">
          <mxGeometry x="308" y="90" width="100" height="60" as="geometry" />
        </mxCell>
        <mxCell id="WPUOntc3Nxlga1c-zfr1-1" value="End" style="ellipse;whiteSpace=wrap;html=1;fontSize=16;" vertex="1" parent="WIyWlLk6GJQsqaUBKTNV-1">
          <mxGeometry x="308" y="3560" width="100" height="60" as="geometry" />
        </mxCell>
        <mxCell id="WPUOntc3Nxlga1c-zfr1-59" style="edgeStyle=orthogonalEdgeStyle;rounded=0;orthogonalLoop=1;jettySize=auto;html=1;entryX=0.5;entryY=0;entryDx=0;entryDy=0;" edge="1" parent="WIyWlLk6GJQsqaUBKTNV-1" source="WPUOntc3Nxlga1c-zfr1-2" target="WPUOntc3Nxlga1c-zfr1-5">
          <mxGeometry relative="1" as="geometry" />
        </mxCell>
        <mxCell id="WPUOntc3Nxlga1c-zfr1-2" value="Read nowDay, nowMonth, nowYear" style="shape=parallelogram;perimeter=parallelogramPerimeter;whiteSpace=wrap;html=1;fixedSize=1;" vertex="1" parent="WIyWlLk6GJQsqaUBKTNV-1">
          <mxGeometry x="232" y="190" width="252" height="40" as="geometry" />
        </mxCell>
        <mxCell id="WPUOntc3Nxlga1c-zfr1-60" style="edgeStyle=orthogonalEdgeStyle;rounded=0;orthogonalLoop=1;jettySize=auto;html=1;" edge="1" parent="WIyWlLk6GJQsqaUBKTNV-1" source="WPUOntc3Nxlga1c-zfr1-5" target="WPUOntc3Nxlga1c-zfr1-6">
          <mxGeometry relative="1" as="geometry" />
        </mxCell>
        <mxCell id="WPUOntc3Nxlga1c-zfr1-5" value="Read birthDay, birthMonth, birthYear" style="shape=parallelogram;perimeter=parallelogramPerimeter;whiteSpace=wrap;html=1;fixedSize=1;" vertex="1" parent="WIyWlLk6GJQsqaUBKTNV-1">
          <mxGeometry x="232" y="260" width="252" height="40" as="geometry" />
        </mxCell>
        <mxCell id="WPUOntc3Nxlga1c-zfr1-61" style="edgeStyle=orthogonalEdgeStyle;rounded=0;orthogonalLoop=1;jettySize=auto;html=1;entryX=0;entryY=0.5;entryDx=0;entryDy=0;" edge="1" parent="WIyWlLk6GJQsqaUBKTNV-1" source="WPUOntc3Nxlga1c-zfr1-6" target="WPUOntc3Nxlga1c-zfr1-8">
          <mxGeometry relative="1" as="geometry" />
        </mxCell>
        <mxCell id="WPUOntc3Nxlga1c-zfr1-66" value="Yes" style="edgeLabel;html=1;align=center;verticalAlign=middle;resizable=0;points=[];" vertex="1" connectable="0" parent="WPUOntc3Nxlga1c-zfr1-61">
          <mxGeometry x="-0.2326" relative="1" as="geometry">
            <mxPoint as="offset" />
          </mxGeometry>
        </mxCell>
        <mxCell id="WPUOntc3Nxlga1c-zfr1-62" style="edgeStyle=orthogonalEdgeStyle;rounded=0;orthogonalLoop=1;jettySize=auto;html=1;entryX=0.5;entryY=0;entryDx=0;entryDy=0;" edge="1" parent="WIyWlLk6GJQsqaUBKTNV-1" source="WPUOntc3Nxlga1c-zfr1-6" target="WPUOntc3Nxlga1c-zfr1-9">
          <mxGeometry relative="1" as="geometry" />
        </mxCell>
        <mxCell id="WPUOntc3Nxlga1c-zfr1-67" value="No" style="edgeLabel;html=1;align=center;verticalAlign=middle;resizable=0;points=[];" vertex="1" connectable="0" parent="WPUOntc3Nxlga1c-zfr1-62">
          <mxGeometry x="-0.2944" y="-1" relative="1" as="geometry">
            <mxPoint as="offset" />
          </mxGeometry>
        </mxCell>
        <mxCell id="WPUOntc3Nxlga1c-zfr1-6" value="&lt;div&gt;If nowDay &amp;lt;= 0 || birthDay &amp;lt;= 0&lt;/div&gt;&lt;div&gt;&lt;span style=&quot;background-color: initial;&quot;&gt;|| nowMonth &amp;lt;= 0 || birthMonth &amp;lt;= 0&lt;/span&gt;&lt;/div&gt;&lt;div&gt;&amp;nbsp; &amp;nbsp;|| nowYear&amp;nbsp; &amp;lt;= 0 || birthYear&amp;nbsp; &amp;lt;= 0&lt;/div&gt;" style="rhombus;whiteSpace=wrap;html=1;" vertex="1" parent="WIyWlLk6GJQsqaUBKTNV-1">
          <mxGeometry x="212" y="370" width="292" height="140" as="geometry" />
        </mxCell>
        <mxCell id="WPUOntc3Nxlga1c-zfr1-163" style="edgeStyle=orthogonalEdgeStyle;rounded=0;orthogonalLoop=1;jettySize=auto;html=1;" edge="1" parent="WIyWlLk6GJQsqaUBKTNV-1" source="WPUOntc3Nxlga1c-zfr1-8" target="WPUOntc3Nxlga1c-zfr1-1">
          <mxGeometry relative="1" as="geometry">
            <mxPoint x="960" y="3180" as="targetPoint" />
            <Array as="points">
              <mxPoint x="960" y="440" />
              <mxPoint x="960" y="3590" />
            </Array>
          </mxGeometry>
        </mxCell>
        <mxCell id="WPUOntc3Nxlga1c-zfr1-8" value="Print&amp;nbsp;&quot;Days, months and years must be greater than zero!&quot;" style="shape=parallelogram;perimeter=parallelogramPerimeter;whiteSpace=wrap;html=1;fixedSize=1;" vertex="1" parent="WIyWlLk6GJQsqaUBKTNV-1">
          <mxGeometry x="580" y="415" width="250" height="50" as="geometry" />
        </mxCell>
        <mxCell id="WPUOntc3Nxlga1c-zfr1-63" style="edgeStyle=orthogonalEdgeStyle;rounded=0;orthogonalLoop=1;jettySize=auto;html=1;entryX=0.5;entryY=0;entryDx=0;entryDy=0;" edge="1" parent="WIyWlLk6GJQsqaUBKTNV-1" source="WPUOntc3Nxlga1c-zfr1-9" target="WPUOntc3Nxlga1c-zfr1-10">
          <mxGeometry relative="1" as="geometry" />
        </mxCell>
        <mxCell id="WPUOntc3Nxlga1c-zfr1-9" value="isNowLeapYear = False" style="rounded=0;whiteSpace=wrap;html=1;" vertex="1" parent="WIyWlLk6GJQsqaUBKTNV-1">
          <mxGeometry x="280" y="570" width="156" height="50" as="geometry" />
        </mxCell>
        <mxCell id="WPUOntc3Nxlga1c-zfr1-64" style="edgeStyle=orthogonalEdgeStyle;rounded=0;orthogonalLoop=1;jettySize=auto;html=1;entryX=0;entryY=0.5;entryDx=0;entryDy=0;" edge="1" parent="WIyWlLk6GJQsqaUBKTNV-1" source="WPUOntc3Nxlga1c-zfr1-10" target="WPUOntc3Nxlga1c-zfr1-11">
          <mxGeometry relative="1" as="geometry" />
        </mxCell>
        <mxCell id="WPUOntc3Nxlga1c-zfr1-75" value="Yes" style="edgeLabel;html=1;align=center;verticalAlign=middle;resizable=0;points=[];" vertex="1" connectable="0" parent="WPUOntc3Nxlga1c-zfr1-64">
          <mxGeometry x="-0.1667" y="-1" relative="1" as="geometry">
            <mxPoint as="offset" />
          </mxGeometry>
        </mxCell>
        <mxCell id="WPUOntc3Nxlga1c-zfr1-65" style="edgeStyle=orthogonalEdgeStyle;rounded=0;orthogonalLoop=1;jettySize=auto;html=1;entryX=0.5;entryY=0;entryDx=0;entryDy=0;" edge="1" parent="WIyWlLk6GJQsqaUBKTNV-1" source="WPUOntc3Nxlga1c-zfr1-10" target="WPUOntc3Nxlga1c-zfr1-12">
          <mxGeometry relative="1" as="geometry" />
        </mxCell>
        <mxCell id="WPUOntc3Nxlga1c-zfr1-80" value="No" style="edgeLabel;html=1;align=center;verticalAlign=middle;resizable=0;points=[];" vertex="1" connectable="0" parent="WPUOntc3Nxlga1c-zfr1-65">
          <mxGeometry x="-0.1639" y="-1" relative="1" as="geometry">
            <mxPoint as="offset" />
          </mxGeometry>
        </mxCell>
        <mxCell id="WPUOntc3Nxlga1c-zfr1-10" value="&lt;div&gt;If nowYear % 100 == 0&lt;/div&gt;" style="rhombus;whiteSpace=wrap;html=1;" vertex="1" parent="WIyWlLk6GJQsqaUBKTNV-1">
          <mxGeometry x="264" y="679" width="188" height="60" as="geometry" />
        </mxCell>
        <mxCell id="WPUOntc3Nxlga1c-zfr1-69" style="edgeStyle=orthogonalEdgeStyle;rounded=0;orthogonalLoop=1;jettySize=auto;html=1;" edge="1" parent="WIyWlLk6GJQsqaUBKTNV-1" source="WPUOntc3Nxlga1c-zfr1-11" target="WPUOntc3Nxlga1c-zfr1-15">
          <mxGeometry relative="1" as="geometry" />
        </mxCell>
        <mxCell id="WPUOntc3Nxlga1c-zfr1-79" value="Yes" style="edgeLabel;html=1;align=center;verticalAlign=middle;resizable=0;points=[];" vertex="1" connectable="0" parent="WPUOntc3Nxlga1c-zfr1-69">
          <mxGeometry x="-0.303" y="-1" relative="1" as="geometry">
            <mxPoint as="offset" />
          </mxGeometry>
        </mxCell>
        <mxCell id="WPUOntc3Nxlga1c-zfr1-78" style="edgeStyle=orthogonalEdgeStyle;rounded=0;orthogonalLoop=1;jettySize=auto;html=1;" edge="1" parent="WIyWlLk6GJQsqaUBKTNV-1" source="WPUOntc3Nxlga1c-zfr1-11">
          <mxGeometry relative="1" as="geometry">
            <mxPoint x="360" y="920" as="targetPoint" />
            <Array as="points">
              <mxPoint x="760" y="709" />
              <mxPoint x="760" y="920" />
            </Array>
          </mxGeometry>
        </mxCell>
        <mxCell id="WPUOntc3Nxlga1c-zfr1-81" value="No" style="edgeLabel;html=1;align=center;verticalAlign=middle;resizable=0;points=[];" vertex="1" connectable="0" parent="WPUOntc3Nxlga1c-zfr1-78">
          <mxGeometry x="-0.9377" relative="1" as="geometry">
            <mxPoint as="offset" />
          </mxGeometry>
        </mxCell>
        <mxCell id="WPUOntc3Nxlga1c-zfr1-11" value="&lt;div&gt;If nowYear % 400 == 0&lt;/div&gt;" style="rhombus;whiteSpace=wrap;html=1;" vertex="1" parent="WIyWlLk6GJQsqaUBKTNV-1">
          <mxGeometry x="520" y="679" width="188" height="60" as="geometry" />
        </mxCell>
        <mxCell id="WPUOntc3Nxlga1c-zfr1-76" value="" style="edgeStyle=orthogonalEdgeStyle;rounded=0;orthogonalLoop=1;jettySize=auto;html=1;" edge="1" parent="WIyWlLk6GJQsqaUBKTNV-1" source="WPUOntc3Nxlga1c-zfr1-12" target="WPUOntc3Nxlga1c-zfr1-16">
          <mxGeometry relative="1" as="geometry" />
        </mxCell>
        <mxCell id="WPUOntc3Nxlga1c-zfr1-84" value="No" style="edgeLabel;html=1;align=center;verticalAlign=middle;resizable=0;points=[];" vertex="1" connectable="0" parent="WPUOntc3Nxlga1c-zfr1-76">
          <mxGeometry x="-0.6152" relative="1" as="geometry">
            <mxPoint as="offset" />
          </mxGeometry>
        </mxCell>
        <mxCell id="WPUOntc3Nxlga1c-zfr1-77" value="" style="edgeStyle=orthogonalEdgeStyle;rounded=0;orthogonalLoop=1;jettySize=auto;html=1;" edge="1" parent="WIyWlLk6GJQsqaUBKTNV-1" source="WPUOntc3Nxlga1c-zfr1-12" target="WPUOntc3Nxlga1c-zfr1-15">
          <mxGeometry relative="1" as="geometry" />
        </mxCell>
        <mxCell id="WPUOntc3Nxlga1c-zfr1-82" value="Yes" style="edgeLabel;html=1;align=center;verticalAlign=middle;resizable=0;points=[];" vertex="1" connectable="0" parent="WPUOntc3Nxlga1c-zfr1-77">
          <mxGeometry x="-0.5437" y="-1" relative="1" as="geometry">
            <mxPoint x="5" y="-1" as="offset" />
          </mxGeometry>
        </mxCell>
        <mxCell id="WPUOntc3Nxlga1c-zfr1-12" value="&lt;div&gt;If nowYear % 4 == 0&lt;/div&gt;" style="rhombus;whiteSpace=wrap;html=1;" vertex="1" parent="WIyWlLk6GJQsqaUBKTNV-1">
          <mxGeometry x="264" y="800" width="188" height="60" as="geometry" />
        </mxCell>
        <mxCell id="WPUOntc3Nxlga1c-zfr1-83" style="edgeStyle=orthogonalEdgeStyle;rounded=0;orthogonalLoop=1;jettySize=auto;html=1;" edge="1" parent="WIyWlLk6GJQsqaUBKTNV-1" source="WPUOntc3Nxlga1c-zfr1-15">
          <mxGeometry relative="1" as="geometry">
            <mxPoint x="614" y="920" as="targetPoint" />
          </mxGeometry>
        </mxCell>
        <mxCell id="WPUOntc3Nxlga1c-zfr1-15" value="isNowLeapYear = True" style="rounded=0;whiteSpace=wrap;html=1;" vertex="1" parent="WIyWlLk6GJQsqaUBKTNV-1">
          <mxGeometry x="536" y="805" width="156" height="50" as="geometry" />
        </mxCell>
        <mxCell id="WPUOntc3Nxlga1c-zfr1-103" value="" style="edgeStyle=orthogonalEdgeStyle;rounded=0;orthogonalLoop=1;jettySize=auto;html=1;" edge="1" parent="WIyWlLk6GJQsqaUBKTNV-1" source="WPUOntc3Nxlga1c-zfr1-16" target="WPUOntc3Nxlga1c-zfr1-89">
          <mxGeometry relative="1" as="geometry" />
        </mxCell>
        <mxCell id="WPUOntc3Nxlga1c-zfr1-16" value="isBirthLeapYear = False" style="rounded=0;whiteSpace=wrap;html=1;" vertex="1" parent="WIyWlLk6GJQsqaUBKTNV-1">
          <mxGeometry x="280" y="970" width="156" height="50" as="geometry" />
        </mxCell>
        <mxCell id="WPUOntc3Nxlga1c-zfr1-104" value="" style="edgeStyle=orthogonalEdgeStyle;rounded=0;orthogonalLoop=1;jettySize=auto;html=1;" edge="1" parent="WIyWlLk6GJQsqaUBKTNV-1" source="WPUOntc3Nxlga1c-zfr1-22" target="WPUOntc3Nxlga1c-zfr1-24">
          <mxGeometry relative="1" as="geometry" />
        </mxCell>
        <mxCell id="WPUOntc3Nxlga1c-zfr1-22" value="monthDaysNonLeap[12] = {31, 28, 31, 30, 31, 30, 31, 31, 30, 31, 30, 31}" style="rounded=0;whiteSpace=wrap;html=1;" vertex="1" parent="WIyWlLk6GJQsqaUBKTNV-1">
          <mxGeometry x="142" y="1370" width="432" height="50" as="geometry" />
        </mxCell>
        <mxCell id="WPUOntc3Nxlga1c-zfr1-107" value="" style="edgeStyle=orthogonalEdgeStyle;rounded=0;orthogonalLoop=1;jettySize=auto;html=1;" edge="1" parent="WIyWlLk6GJQsqaUBKTNV-1" source="WPUOntc3Nxlga1c-zfr1-23" target="WPUOntc3Nxlga1c-zfr1-29">
          <mxGeometry relative="1" as="geometry" />
        </mxCell>
        <mxCell id="WPUOntc3Nxlga1c-zfr1-23" value="birthMonthDays = monthDaysNonLeap[birthMonth]" style="rounded=0;whiteSpace=wrap;html=1;" vertex="1" parent="WIyWlLk6GJQsqaUBKTNV-1">
          <mxGeometry x="196" y="1610" width="324" height="50" as="geometry" />
        </mxCell>
        <mxCell id="WPUOntc3Nxlga1c-zfr1-105" value="" style="edgeStyle=orthogonalEdgeStyle;rounded=0;orthogonalLoop=1;jettySize=auto;html=1;" edge="1" parent="WIyWlLk6GJQsqaUBKTNV-1" source="WPUOntc3Nxlga1c-zfr1-24" target="WPUOntc3Nxlga1c-zfr1-26">
          <mxGeometry relative="1" as="geometry" />
        </mxCell>
        <mxCell id="WPUOntc3Nxlga1c-zfr1-110" value="Yes" style="edgeLabel;html=1;align=center;verticalAlign=middle;resizable=0;points=[];" vertex="1" connectable="0" parent="WPUOntc3Nxlga1c-zfr1-105">
          <mxGeometry x="-0.5331" y="3" relative="1" as="geometry">
            <mxPoint x="7" y="3" as="offset" />
          </mxGeometry>
        </mxCell>
        <mxCell id="WPUOntc3Nxlga1c-zfr1-106" value="" style="edgeStyle=orthogonalEdgeStyle;rounded=0;orthogonalLoop=1;jettySize=auto;html=1;" edge="1" parent="WIyWlLk6GJQsqaUBKTNV-1" source="WPUOntc3Nxlga1c-zfr1-24" target="WPUOntc3Nxlga1c-zfr1-23">
          <mxGeometry relative="1" as="geometry" />
        </mxCell>
        <mxCell id="WPUOntc3Nxlga1c-zfr1-111" value="No" style="edgeLabel;html=1;align=center;verticalAlign=middle;resizable=0;points=[];" vertex="1" connectable="0" parent="WPUOntc3Nxlga1c-zfr1-106">
          <mxGeometry x="-0.2255" y="2" relative="1" as="geometry">
            <mxPoint x="-2" as="offset" />
          </mxGeometry>
        </mxCell>
        <mxCell id="WPUOntc3Nxlga1c-zfr1-24" value="&lt;div&gt;If&amp;nbsp;isBirthLeapYear &amp;amp;&amp;amp; birthMonth == 2&lt;/div&gt;" style="rhombus;whiteSpace=wrap;html=1;" vertex="1" parent="WIyWlLk6GJQsqaUBKTNV-1">
          <mxGeometry x="216" y="1480" width="284" height="80" as="geometry" />
        </mxCell>
        <mxCell id="WPUOntc3Nxlga1c-zfr1-108" style="edgeStyle=orthogonalEdgeStyle;rounded=0;orthogonalLoop=1;jettySize=auto;html=1;" edge="1" parent="WIyWlLk6GJQsqaUBKTNV-1" source="WPUOntc3Nxlga1c-zfr1-26">
          <mxGeometry relative="1" as="geometry">
            <mxPoint x="360" y="1690" as="targetPoint" />
            <Array as="points">
              <mxPoint x="666" y="1690" />
            </Array>
          </mxGeometry>
        </mxCell>
        <mxCell id="WPUOntc3Nxlga1c-zfr1-26" value="birthMonthDays = 29" style="rounded=0;whiteSpace=wrap;html=1;" vertex="1" parent="WIyWlLk6GJQsqaUBKTNV-1">
          <mxGeometry x="588" y="1495" width="156" height="50" as="geometry" />
        </mxCell>
        <mxCell id="WPUOntc3Nxlga1c-zfr1-118" value="" style="edgeStyle=orthogonalEdgeStyle;rounded=0;orthogonalLoop=1;jettySize=auto;html=1;" edge="1" parent="WIyWlLk6GJQsqaUBKTNV-1" source="WPUOntc3Nxlga1c-zfr1-28" target="WPUOntc3Nxlga1c-zfr1-31">
          <mxGeometry relative="1" as="geometry" />
        </mxCell>
        <mxCell id="WPUOntc3Nxlga1c-zfr1-28" value="nowMonthDays = monthDaysNonLeap[nowMonth]" style="rounded=0;whiteSpace=wrap;html=1;" vertex="1" parent="WIyWlLk6GJQsqaUBKTNV-1">
          <mxGeometry x="196" y="1860" width="324" height="50" as="geometry" />
        </mxCell>
        <mxCell id="WPUOntc3Nxlga1c-zfr1-114" value="" style="edgeStyle=orthogonalEdgeStyle;rounded=0;orthogonalLoop=1;jettySize=auto;html=1;" edge="1" parent="WIyWlLk6GJQsqaUBKTNV-1" source="WPUOntc3Nxlga1c-zfr1-29" target="WPUOntc3Nxlga1c-zfr1-30">
          <mxGeometry relative="1" as="geometry" />
        </mxCell>
        <mxCell id="WPUOntc3Nxlga1c-zfr1-117" value="Yes" style="edgeLabel;html=1;align=center;verticalAlign=middle;resizable=0;points=[];" vertex="1" connectable="0" parent="WPUOntc3Nxlga1c-zfr1-114">
          <mxGeometry x="-0.3264" y="1" relative="1" as="geometry">
            <mxPoint as="offset" />
          </mxGeometry>
        </mxCell>
        <mxCell id="WPUOntc3Nxlga1c-zfr1-115" value="" style="edgeStyle=orthogonalEdgeStyle;rounded=0;orthogonalLoop=1;jettySize=auto;html=1;" edge="1" parent="WIyWlLk6GJQsqaUBKTNV-1" source="WPUOntc3Nxlga1c-zfr1-29" target="WPUOntc3Nxlga1c-zfr1-28">
          <mxGeometry relative="1" as="geometry" />
        </mxCell>
        <mxCell id="WPUOntc3Nxlga1c-zfr1-116" value="No" style="edgeLabel;html=1;align=center;verticalAlign=middle;resizable=0;points=[];" vertex="1" connectable="0" parent="WPUOntc3Nxlga1c-zfr1-115">
          <mxGeometry x="-0.2636" relative="1" as="geometry">
            <mxPoint as="offset" />
          </mxGeometry>
        </mxCell>
        <mxCell id="WPUOntc3Nxlga1c-zfr1-29" value="&lt;div&gt;If&amp;nbsp;isNowLeapYear &amp;amp;&amp;amp; NowMonth == 2&lt;/div&gt;" style="rhombus;whiteSpace=wrap;html=1;" vertex="1" parent="WIyWlLk6GJQsqaUBKTNV-1">
          <mxGeometry x="216" y="1720" width="284" height="80" as="geometry" />
        </mxCell>
        <mxCell id="WPUOntc3Nxlga1c-zfr1-168" style="edgeStyle=orthogonalEdgeStyle;rounded=0;orthogonalLoop=1;jettySize=auto;html=1;" edge="1" parent="WIyWlLk6GJQsqaUBKTNV-1" source="WPUOntc3Nxlga1c-zfr1-30">
          <mxGeometry relative="1" as="geometry">
            <mxPoint x="360" y="1950" as="targetPoint" />
            <Array as="points">
              <mxPoint x="666" y="1950" />
            </Array>
          </mxGeometry>
        </mxCell>
        <mxCell id="WPUOntc3Nxlga1c-zfr1-30" value="nowMonthDays = 29" style="rounded=0;whiteSpace=wrap;html=1;" vertex="1" parent="WIyWlLk6GJQsqaUBKTNV-1">
          <mxGeometry x="588" y="1735" width="156" height="50" as="geometry" />
        </mxCell>
        <mxCell id="WPUOntc3Nxlga1c-zfr1-119" value="" style="edgeStyle=orthogonalEdgeStyle;rounded=0;orthogonalLoop=1;jettySize=auto;html=1;" edge="1" parent="WIyWlLk6GJQsqaUBKTNV-1" source="WPUOntc3Nxlga1c-zfr1-31" target="WPUOntc3Nxlga1c-zfr1-38">
          <mxGeometry relative="1" as="geometry" />
        </mxCell>
        <mxCell id="WPUOntc3Nxlga1c-zfr1-126" value="No" style="edgeLabel;html=1;align=center;verticalAlign=middle;resizable=0;points=[];" vertex="1" connectable="0" parent="WPUOntc3Nxlga1c-zfr1-119">
          <mxGeometry x="-0.1527" y="-1" relative="1" as="geometry">
            <mxPoint as="offset" />
          </mxGeometry>
        </mxCell>
        <mxCell id="WPUOntc3Nxlga1c-zfr1-122" style="edgeStyle=orthogonalEdgeStyle;rounded=0;orthogonalLoop=1;jettySize=auto;html=1;entryX=0.5;entryY=0;entryDx=0;entryDy=0;" edge="1" parent="WIyWlLk6GJQsqaUBKTNV-1" source="WPUOntc3Nxlga1c-zfr1-31" target="WPUOntc3Nxlga1c-zfr1-34">
          <mxGeometry relative="1" as="geometry" />
        </mxCell>
        <mxCell id="WPUOntc3Nxlga1c-zfr1-125" value="Yes" style="edgeLabel;html=1;align=center;verticalAlign=middle;resizable=0;points=[];" vertex="1" connectable="0" parent="WPUOntc3Nxlga1c-zfr1-122">
          <mxGeometry x="-0.61" y="2" relative="1" as="geometry">
            <mxPoint x="3" y="2" as="offset" />
          </mxGeometry>
        </mxCell>
        <mxCell id="WPUOntc3Nxlga1c-zfr1-31" value="&lt;div&gt;If&amp;nbsp;nowDay &amp;gt; nowMonthDays&amp;nbsp;&lt;/div&gt;" style="rhombus;whiteSpace=wrap;html=1;" vertex="1" parent="WIyWlLk6GJQsqaUBKTNV-1">
          <mxGeometry x="246" y="1990" width="224" height="60" as="geometry" />
        </mxCell>
        <mxCell id="WPUOntc3Nxlga1c-zfr1-165" style="edgeStyle=orthogonalEdgeStyle;rounded=0;orthogonalLoop=1;jettySize=auto;html=1;" edge="1" parent="WIyWlLk6GJQsqaUBKTNV-1" source="WPUOntc3Nxlga1c-zfr1-34">
          <mxGeometry relative="1" as="geometry">
            <mxPoint x="960" y="2070" as="targetPoint" />
          </mxGeometry>
        </mxCell>
        <mxCell id="WPUOntc3Nxlga1c-zfr1-34" value="Print &quot;Invalid date given!&quot;" style="shape=parallelogram;perimeter=parallelogramPerimeter;whiteSpace=wrap;html=1;fixedSize=1;" vertex="1" parent="WIyWlLk6GJQsqaUBKTNV-1">
          <mxGeometry x="488" y="2050" width="180" height="40" as="geometry" />
        </mxCell>
        <mxCell id="WPUOntc3Nxlga1c-zfr1-166" style="edgeStyle=orthogonalEdgeStyle;rounded=0;orthogonalLoop=1;jettySize=auto;html=1;" edge="1" parent="WIyWlLk6GJQsqaUBKTNV-1" source="WPUOntc3Nxlga1c-zfr1-35">
          <mxGeometry relative="1" as="geometry">
            <mxPoint x="960" y="2270" as="targetPoint" />
          </mxGeometry>
        </mxCell>
        <mxCell id="WPUOntc3Nxlga1c-zfr1-35" value="Print &quot;Invalid month given!&quot;" style="shape=parallelogram;perimeter=parallelogramPerimeter;whiteSpace=wrap;html=1;fixedSize=1;" vertex="1" parent="WIyWlLk6GJQsqaUBKTNV-1">
          <mxGeometry x="548" y="2250" width="180" height="40" as="geometry" />
        </mxCell>
        <mxCell id="WPUOntc3Nxlga1c-zfr1-129" value="" style="edgeStyle=orthogonalEdgeStyle;rounded=0;orthogonalLoop=1;jettySize=auto;html=1;" edge="1" parent="WIyWlLk6GJQsqaUBKTNV-1" source="WPUOntc3Nxlga1c-zfr1-36" target="WPUOntc3Nxlga1c-zfr1-35">
          <mxGeometry relative="1" as="geometry" />
        </mxCell>
        <mxCell id="WPUOntc3Nxlga1c-zfr1-131" value="Yes" style="edgeLabel;html=1;align=center;verticalAlign=middle;resizable=0;points=[];" vertex="1" connectable="0" parent="WPUOntc3Nxlga1c-zfr1-129">
          <mxGeometry x="-0.3423" relative="1" as="geometry">
            <mxPoint as="offset" />
          </mxGeometry>
        </mxCell>
        <mxCell id="WPUOntc3Nxlga1c-zfr1-130" value="" style="edgeStyle=orthogonalEdgeStyle;rounded=0;orthogonalLoop=1;jettySize=auto;html=1;" edge="1" parent="WIyWlLk6GJQsqaUBKTNV-1" source="WPUOntc3Nxlga1c-zfr1-36" target="WPUOntc3Nxlga1c-zfr1-39">
          <mxGeometry relative="1" as="geometry" />
        </mxCell>
        <mxCell id="WPUOntc3Nxlga1c-zfr1-132" value="No" style="edgeLabel;html=1;align=center;verticalAlign=middle;resizable=0;points=[];" vertex="1" connectable="0" parent="WPUOntc3Nxlga1c-zfr1-130">
          <mxGeometry x="-0.2783" y="1" relative="1" as="geometry">
            <mxPoint as="offset" />
          </mxGeometry>
        </mxCell>
        <mxCell id="WPUOntc3Nxlga1c-zfr1-36" value="&lt;div&gt;If nowMonth &amp;gt; 12 || birthMonth &amp;gt; 12&lt;/div&gt;" style="rhombus;whiteSpace=wrap;html=1;" vertex="1" parent="WIyWlLk6GJQsqaUBKTNV-1">
          <mxGeometry x="236" y="2230" width="244" height="80" as="geometry" />
        </mxCell>
        <mxCell id="WPUOntc3Nxlga1c-zfr1-120" value="" style="edgeStyle=orthogonalEdgeStyle;rounded=0;orthogonalLoop=1;jettySize=auto;html=1;" edge="1" parent="WIyWlLk6GJQsqaUBKTNV-1" source="WPUOntc3Nxlga1c-zfr1-38" target="WPUOntc3Nxlga1c-zfr1-36">
          <mxGeometry relative="1" as="geometry" />
        </mxCell>
        <mxCell id="WPUOntc3Nxlga1c-zfr1-128" value="No" style="edgeLabel;html=1;align=center;verticalAlign=middle;resizable=0;points=[];" vertex="1" connectable="0" parent="WPUOntc3Nxlga1c-zfr1-120">
          <mxGeometry x="-0.4468" y="-1" relative="1" as="geometry">
            <mxPoint as="offset" />
          </mxGeometry>
        </mxCell>
        <mxCell id="WPUOntc3Nxlga1c-zfr1-121" style="edgeStyle=orthogonalEdgeStyle;rounded=0;orthogonalLoop=1;jettySize=auto;html=1;" edge="1" parent="WIyWlLk6GJQsqaUBKTNV-1" source="WPUOntc3Nxlga1c-zfr1-38" target="WPUOntc3Nxlga1c-zfr1-34">
          <mxGeometry relative="1" as="geometry" />
        </mxCell>
        <mxCell id="WPUOntc3Nxlga1c-zfr1-127" value="Yes" style="edgeLabel;html=1;align=center;verticalAlign=middle;resizable=0;points=[];" vertex="1" connectable="0" parent="WPUOntc3Nxlga1c-zfr1-121">
          <mxGeometry x="-0.4889" y="-2" relative="1" as="geometry">
            <mxPoint x="-8" y="-2" as="offset" />
          </mxGeometry>
        </mxCell>
        <mxCell id="WPUOntc3Nxlga1c-zfr1-38" value="&lt;div&gt;If&amp;nbsp;birthDay &amp;gt; birthMonthDays&amp;nbsp;&lt;/div&gt;" style="rhombus;whiteSpace=wrap;html=1;" vertex="1" parent="WIyWlLk6GJQsqaUBKTNV-1">
          <mxGeometry x="246" y="2100" width="224" height="60" as="geometry" />
        </mxCell>
        <mxCell id="WPUOntc3Nxlga1c-zfr1-133" style="edgeStyle=orthogonalEdgeStyle;rounded=0;orthogonalLoop=1;jettySize=auto;html=1;" edge="1" parent="WIyWlLk6GJQsqaUBKTNV-1" source="WPUOntc3Nxlga1c-zfr1-39" target="WPUOntc3Nxlga1c-zfr1-45">
          <mxGeometry relative="1" as="geometry" />
        </mxCell>
        <mxCell id="WPUOntc3Nxlga1c-zfr1-140" value="Yes" style="edgeLabel;html=1;align=center;verticalAlign=middle;resizable=0;points=[];" vertex="1" connectable="0" parent="WPUOntc3Nxlga1c-zfr1-133">
          <mxGeometry x="-0.8181" y="-3" relative="1" as="geometry">
            <mxPoint x="11" y="-3" as="offset" />
          </mxGeometry>
        </mxCell>
        <mxCell id="WPUOntc3Nxlga1c-zfr1-138" value="" style="edgeStyle=orthogonalEdgeStyle;rounded=0;orthogonalLoop=1;jettySize=auto;html=1;" edge="1" parent="WIyWlLk6GJQsqaUBKTNV-1" source="WPUOntc3Nxlga1c-zfr1-39" target="WPUOntc3Nxlga1c-zfr1-40">
          <mxGeometry relative="1" as="geometry" />
        </mxCell>
        <mxCell id="WPUOntc3Nxlga1c-zfr1-143" value="No" style="edgeLabel;html=1;align=center;verticalAlign=middle;resizable=0;points=[];" vertex="1" connectable="0" parent="WPUOntc3Nxlga1c-zfr1-138">
          <mxGeometry x="-0.233" relative="1" as="geometry">
            <mxPoint as="offset" />
          </mxGeometry>
        </mxCell>
        <mxCell id="WPUOntc3Nxlga1c-zfr1-39" value="&lt;div&gt;If nowYear &amp;lt; birthYear&lt;/div&gt;" style="rhombus;whiteSpace=wrap;html=1;" vertex="1" parent="WIyWlLk6GJQsqaUBKTNV-1">
          <mxGeometry x="256" y="2370" width="204" height="60" as="geometry" />
        </mxCell>
        <mxCell id="WPUOntc3Nxlga1c-zfr1-134" value="" style="edgeStyle=orthogonalEdgeStyle;rounded=0;orthogonalLoop=1;jettySize=auto;html=1;" edge="1" parent="WIyWlLk6GJQsqaUBKTNV-1" source="WPUOntc3Nxlga1c-zfr1-40" target="WPUOntc3Nxlga1c-zfr1-45">
          <mxGeometry relative="1" as="geometry" />
        </mxCell>
        <mxCell id="WPUOntc3Nxlga1c-zfr1-141" value="Yes" style="edgeLabel;html=1;align=center;verticalAlign=middle;resizable=0;points=[];" vertex="1" connectable="0" parent="WPUOntc3Nxlga1c-zfr1-134">
          <mxGeometry x="-0.2919" y="-2" relative="1" as="geometry">
            <mxPoint x="-1" y="-2" as="offset" />
          </mxGeometry>
        </mxCell>
        <mxCell id="WPUOntc3Nxlga1c-zfr1-139" value="" style="edgeStyle=orthogonalEdgeStyle;rounded=0;orthogonalLoop=1;jettySize=auto;html=1;" edge="1" parent="WIyWlLk6GJQsqaUBKTNV-1" source="WPUOntc3Nxlga1c-zfr1-40" target="WPUOntc3Nxlga1c-zfr1-46">
          <mxGeometry relative="1" as="geometry" />
        </mxCell>
        <mxCell id="WPUOntc3Nxlga1c-zfr1-144" value="No" style="edgeLabel;html=1;align=center;verticalAlign=middle;resizable=0;points=[];" vertex="1" connectable="0" parent="WPUOntc3Nxlga1c-zfr1-139">
          <mxGeometry x="-0.2157" relative="1" as="geometry">
            <mxPoint as="offset" />
          </mxGeometry>
        </mxCell>
        <mxCell id="WPUOntc3Nxlga1c-zfr1-40" value="&lt;div&gt;If&amp;nbsp;nowYear == birthYear&amp;nbsp;&lt;/div&gt;&lt;div&gt;&amp;amp;&amp;amp; nowMonth &amp;lt; birthMonth&lt;/div&gt;" style="rhombus;whiteSpace=wrap;html=1;" vertex="1" parent="WIyWlLk6GJQsqaUBKTNV-1">
          <mxGeometry x="236" y="2480" width="244" height="80" as="geometry" />
        </mxCell>
        <mxCell id="WPUOntc3Nxlga1c-zfr1-167" style="edgeStyle=orthogonalEdgeStyle;rounded=0;orthogonalLoop=1;jettySize=auto;html=1;" edge="1" parent="WIyWlLk6GJQsqaUBKTNV-1" source="WPUOntc3Nxlga1c-zfr1-45">
          <mxGeometry relative="1" as="geometry">
            <mxPoint x="960" y="2520" as="targetPoint" />
          </mxGeometry>
        </mxCell>
        <mxCell id="WPUOntc3Nxlga1c-zfr1-45" value="Print&amp;nbsp;&quot;Today&#39;s date cannot be bigger than date of birth!&quot;" style="shape=parallelogram;perimeter=parallelogramPerimeter;whiteSpace=wrap;html=1;fixedSize=1;" vertex="1" parent="WIyWlLk6GJQsqaUBKTNV-1">
          <mxGeometry x="540" y="2500" width="360" height="40" as="geometry" />
        </mxCell>
        <mxCell id="WPUOntc3Nxlga1c-zfr1-135" style="edgeStyle=orthogonalEdgeStyle;rounded=0;orthogonalLoop=1;jettySize=auto;html=1;entryX=0.5;entryY=1;entryDx=0;entryDy=0;" edge="1" parent="WIyWlLk6GJQsqaUBKTNV-1" source="WPUOntc3Nxlga1c-zfr1-46" target="WPUOntc3Nxlga1c-zfr1-45">
          <mxGeometry relative="1" as="geometry" />
        </mxCell>
        <mxCell id="WPUOntc3Nxlga1c-zfr1-142" value="Yes" style="edgeLabel;html=1;align=center;verticalAlign=middle;resizable=0;points=[];" vertex="1" connectable="0" parent="WPUOntc3Nxlga1c-zfr1-135">
          <mxGeometry x="-0.8473" relative="1" as="geometry">
            <mxPoint as="offset" />
          </mxGeometry>
        </mxCell>
        <mxCell id="WPUOntc3Nxlga1c-zfr1-137" value="" style="edgeStyle=orthogonalEdgeStyle;rounded=0;orthogonalLoop=1;jettySize=auto;html=1;" edge="1" parent="WIyWlLk6GJQsqaUBKTNV-1" source="WPUOntc3Nxlga1c-zfr1-46" target="WPUOntc3Nxlga1c-zfr1-47">
          <mxGeometry relative="1" as="geometry" />
        </mxCell>
        <mxCell id="WPUOntc3Nxlga1c-zfr1-145" value="No" style="edgeLabel;html=1;align=center;verticalAlign=middle;resizable=0;points=[];" vertex="1" connectable="0" parent="WPUOntc3Nxlga1c-zfr1-137">
          <mxGeometry x="-0.5739" y="-1" relative="1" as="geometry">
            <mxPoint as="offset" />
          </mxGeometry>
        </mxCell>
        <mxCell id="WPUOntc3Nxlga1c-zfr1-46" value="&lt;div&gt;If&amp;nbsp;nowYear == birthYear&amp;nbsp;&lt;/div&gt;&lt;div&gt;&amp;amp;&amp;amp; nowMonth == birthMonth&amp;nbsp;&lt;/div&gt;&lt;div&gt;&amp;amp;&amp;amp; nowDay &amp;lt; birthDay&lt;/div&gt;" style="rhombus;whiteSpace=wrap;html=1;" vertex="1" parent="WIyWlLk6GJQsqaUBKTNV-1">
          <mxGeometry x="236" y="2610" width="244" height="100" as="geometry" />
        </mxCell>
        <mxCell id="WPUOntc3Nxlga1c-zfr1-147" style="edgeStyle=orthogonalEdgeStyle;rounded=0;orthogonalLoop=1;jettySize=auto;html=1;entryX=0.5;entryY=0;entryDx=0;entryDy=0;" edge="1" parent="WIyWlLk6GJQsqaUBKTNV-1" source="WPUOntc3Nxlga1c-zfr1-47" target="WPUOntc3Nxlga1c-zfr1-48">
          <mxGeometry relative="1" as="geometry" />
        </mxCell>
        <mxCell id="WPUOntc3Nxlga1c-zfr1-47" value="diffYear = nowYear - birthYear" style="rounded=0;whiteSpace=wrap;html=1;" vertex="1" parent="WIyWlLk6GJQsqaUBKTNV-1">
          <mxGeometry x="246" y="2800" width="224" height="50" as="geometry" />
        </mxCell>
        <mxCell id="WPUOntc3Nxlga1c-zfr1-148" value="" style="edgeStyle=orthogonalEdgeStyle;rounded=0;orthogonalLoop=1;jettySize=auto;html=1;" edge="1" parent="WIyWlLk6GJQsqaUBKTNV-1" source="WPUOntc3Nxlga1c-zfr1-48" target="WPUOntc3Nxlga1c-zfr1-49">
          <mxGeometry relative="1" as="geometry" />
        </mxCell>
        <mxCell id="WPUOntc3Nxlga1c-zfr1-48" value="diffMonth = nowMonth - birthMonth" style="rounded=0;whiteSpace=wrap;html=1;" vertex="1" parent="WIyWlLk6GJQsqaUBKTNV-1">
          <mxGeometry x="244" y="2873" width="228" height="50" as="geometry" />
        </mxCell>
        <mxCell id="WPUOntc3Nxlga1c-zfr1-149" value="" style="edgeStyle=orthogonalEdgeStyle;rounded=0;orthogonalLoop=1;jettySize=auto;html=1;" edge="1" parent="WIyWlLk6GJQsqaUBKTNV-1" source="WPUOntc3Nxlga1c-zfr1-49" target="WPUOntc3Nxlga1c-zfr1-50">
          <mxGeometry relative="1" as="geometry" />
        </mxCell>
        <mxCell id="WPUOntc3Nxlga1c-zfr1-152" value="Yes" style="edgeLabel;html=1;align=center;verticalAlign=middle;resizable=0;points=[];" vertex="1" connectable="0" parent="WPUOntc3Nxlga1c-zfr1-149">
          <mxGeometry x="-0.1304" relative="1" as="geometry">
            <mxPoint as="offset" />
          </mxGeometry>
        </mxCell>
        <mxCell id="WPUOntc3Nxlga1c-zfr1-151" style="edgeStyle=orthogonalEdgeStyle;rounded=0;orthogonalLoop=1;jettySize=auto;html=1;" edge="1" parent="WIyWlLk6GJQsqaUBKTNV-1" source="WPUOntc3Nxlga1c-zfr1-49" target="WPUOntc3Nxlga1c-zfr1-53">
          <mxGeometry relative="1" as="geometry" />
        </mxCell>
        <mxCell id="WPUOntc3Nxlga1c-zfr1-154" value="No" style="edgeLabel;html=1;align=center;verticalAlign=middle;resizable=0;points=[];" vertex="1" connectable="0" parent="WPUOntc3Nxlga1c-zfr1-151">
          <mxGeometry x="-0.5645" y="-1" relative="1" as="geometry">
            <mxPoint as="offset" />
          </mxGeometry>
        </mxCell>
        <mxCell id="WPUOntc3Nxlga1c-zfr1-49" value="If diffMonth &amp;lt; 0" style="rhombus;whiteSpace=wrap;html=1;" vertex="1" parent="WIyWlLk6GJQsqaUBKTNV-1">
          <mxGeometry x="266" y="2975" width="184" height="60" as="geometry" />
        </mxCell>
        <mxCell id="WPUOntc3Nxlga1c-zfr1-150" value="" style="edgeStyle=orthogonalEdgeStyle;rounded=0;orthogonalLoop=1;jettySize=auto;html=1;" edge="1" parent="WIyWlLk6GJQsqaUBKTNV-1" source="WPUOntc3Nxlga1c-zfr1-50" target="WPUOntc3Nxlga1c-zfr1-51">
          <mxGeometry relative="1" as="geometry" />
        </mxCell>
        <mxCell id="WPUOntc3Nxlga1c-zfr1-50" value="diffYear = diffYear - 1" style="rounded=0;whiteSpace=wrap;html=1;" vertex="1" parent="WIyWlLk6GJQsqaUBKTNV-1">
          <mxGeometry x="508" y="2980" width="244" height="50" as="geometry" />
        </mxCell>
        <mxCell id="WPUOntc3Nxlga1c-zfr1-153" style="edgeStyle=orthogonalEdgeStyle;rounded=0;orthogonalLoop=1;jettySize=auto;html=1;entryX=1;entryY=0.5;entryDx=0;entryDy=0;exitX=0.5;exitY=1;exitDx=0;exitDy=0;" edge="1" parent="WIyWlLk6GJQsqaUBKTNV-1" source="WPUOntc3Nxlga1c-zfr1-51" target="WPUOntc3Nxlga1c-zfr1-53">
          <mxGeometry relative="1" as="geometry">
            <Array as="points">
              <mxPoint x="630" y="3185" />
            </Array>
          </mxGeometry>
        </mxCell>
        <mxCell id="WPUOntc3Nxlga1c-zfr1-51" value="diffMonth = 12 - birthMonth + nowMonth" style="rounded=0;whiteSpace=wrap;html=1;" vertex="1" parent="WIyWlLk6GJQsqaUBKTNV-1">
          <mxGeometry x="508" y="3060" width="244" height="50" as="geometry" />
        </mxCell>
        <mxCell id="WPUOntc3Nxlga1c-zfr1-156" value="" style="edgeStyle=orthogonalEdgeStyle;rounded=0;orthogonalLoop=1;jettySize=auto;html=1;" edge="1" parent="WIyWlLk6GJQsqaUBKTNV-1" source="WPUOntc3Nxlga1c-zfr1-52" target="WPUOntc3Nxlga1c-zfr1-54">
          <mxGeometry relative="1" as="geometry" />
        </mxCell>
        <mxCell id="WPUOntc3Nxlga1c-zfr1-161" value="Yes" style="edgeLabel;html=1;align=center;verticalAlign=middle;resizable=0;points=[];" vertex="1" connectable="0" parent="WPUOntc3Nxlga1c-zfr1-156">
          <mxGeometry x="-0.2224" y="-2" relative="1" as="geometry">
            <mxPoint x="-1" y="-2" as="offset" />
          </mxGeometry>
        </mxCell>
        <mxCell id="WPUOntc3Nxlga1c-zfr1-159" style="edgeStyle=orthogonalEdgeStyle;rounded=0;orthogonalLoop=1;jettySize=auto;html=1;entryX=0.5;entryY=0;entryDx=0;entryDy=0;" edge="1" parent="WIyWlLk6GJQsqaUBKTNV-1" source="WPUOntc3Nxlga1c-zfr1-52" target="WPUOntc3Nxlga1c-zfr1-56">
          <mxGeometry relative="1" as="geometry" />
        </mxCell>
        <mxCell id="WPUOntc3Nxlga1c-zfr1-162" value="No" style="edgeLabel;html=1;align=center;verticalAlign=middle;resizable=0;points=[];" vertex="1" connectable="0" parent="WPUOntc3Nxlga1c-zfr1-159">
          <mxGeometry x="-0.6331" y="1" relative="1" as="geometry">
            <mxPoint as="offset" />
          </mxGeometry>
        </mxCell>
        <mxCell id="WPUOntc3Nxlga1c-zfr1-52" value="If diffDay &amp;lt; 0" style="rhombus;whiteSpace=wrap;html=1;" vertex="1" parent="WIyWlLk6GJQsqaUBKTNV-1">
          <mxGeometry x="266" y="3265" width="184" height="60" as="geometry" />
        </mxCell>
        <mxCell id="WPUOntc3Nxlga1c-zfr1-155" value="" style="edgeStyle=orthogonalEdgeStyle;rounded=0;orthogonalLoop=1;jettySize=auto;html=1;" edge="1" parent="WIyWlLk6GJQsqaUBKTNV-1" source="WPUOntc3Nxlga1c-zfr1-53" target="WPUOntc3Nxlga1c-zfr1-52">
          <mxGeometry relative="1" as="geometry" />
        </mxCell>
        <mxCell id="WPUOntc3Nxlga1c-zfr1-53" value="diffDay = nowDay - birthDay" style="rounded=0;whiteSpace=wrap;html=1;" vertex="1" parent="WIyWlLk6GJQsqaUBKTNV-1">
          <mxGeometry x="252" y="3160" width="212" height="50" as="geometry" />
        </mxCell>
        <mxCell id="WPUOntc3Nxlga1c-zfr1-157" value="" style="edgeStyle=orthogonalEdgeStyle;rounded=0;orthogonalLoop=1;jettySize=auto;html=1;" edge="1" parent="WIyWlLk6GJQsqaUBKTNV-1" source="WPUOntc3Nxlga1c-zfr1-54" target="WPUOntc3Nxlga1c-zfr1-55">
          <mxGeometry relative="1" as="geometry" />
        </mxCell>
        <mxCell id="WPUOntc3Nxlga1c-zfr1-54" value="diffYear = diffYear - 1" style="rounded=0;whiteSpace=wrap;html=1;" vertex="1" parent="WIyWlLk6GJQsqaUBKTNV-1">
          <mxGeometry x="508" y="3270" width="244" height="50" as="geometry" />
        </mxCell>
        <mxCell id="WPUOntc3Nxlga1c-zfr1-158" style="edgeStyle=orthogonalEdgeStyle;rounded=0;orthogonalLoop=1;jettySize=auto;html=1;entryX=1;entryY=0.5;entryDx=0;entryDy=0;" edge="1" parent="WIyWlLk6GJQsqaUBKTNV-1" source="WPUOntc3Nxlga1c-zfr1-55" target="WPUOntc3Nxlga1c-zfr1-56">
          <mxGeometry relative="1" as="geometry">
            <Array as="points">
              <mxPoint x="630" y="3470" />
            </Array>
          </mxGeometry>
        </mxCell>
        <mxCell id="WPUOntc3Nxlga1c-zfr1-55" value="diffMonth = 12 - birthMonth + nowMonth" style="rounded=0;whiteSpace=wrap;html=1;" vertex="1" parent="WIyWlLk6GJQsqaUBKTNV-1">
          <mxGeometry x="508" y="3360" width="244" height="50" as="geometry" />
        </mxCell>
        <mxCell id="WPUOntc3Nxlga1c-zfr1-160" value="" style="edgeStyle=orthogonalEdgeStyle;rounded=0;orthogonalLoop=1;jettySize=auto;html=1;" edge="1" parent="WIyWlLk6GJQsqaUBKTNV-1" source="WPUOntc3Nxlga1c-zfr1-56" target="WPUOntc3Nxlga1c-zfr1-1">
          <mxGeometry relative="1" as="geometry" />
        </mxCell>
        <mxCell id="WPUOntc3Nxlga1c-zfr1-56" value="PRINT &quot;Age is: &quot;, diffYear, &quot;Y &quot;, diffMonth, &quot;M &quot;, diffDay, &quot;D&quot;" style="shape=parallelogram;perimeter=parallelogramPerimeter;whiteSpace=wrap;html=1;fixedSize=1;" vertex="1" parent="WIyWlLk6GJQsqaUBKTNV-1">
          <mxGeometry x="176" y="3450" width="364" height="40" as="geometry" />
        </mxCell>
        <mxCell id="WPUOntc3Nxlga1c-zfr1-85" style="edgeStyle=orthogonalEdgeStyle;rounded=0;orthogonalLoop=1;jettySize=auto;html=1;entryX=0;entryY=0.5;entryDx=0;entryDy=0;" edge="1" source="WPUOntc3Nxlga1c-zfr1-89" target="WPUOntc3Nxlga1c-zfr1-94" parent="WIyWlLk6GJQsqaUBKTNV-1">
          <mxGeometry relative="1" as="geometry" />
        </mxCell>
        <mxCell id="WPUOntc3Nxlga1c-zfr1-86" value="Yes" style="edgeLabel;html=1;align=center;verticalAlign=middle;resizable=0;points=[];" vertex="1" connectable="0" parent="WPUOntc3Nxlga1c-zfr1-85">
          <mxGeometry x="-0.1667" y="-1" relative="1" as="geometry">
            <mxPoint as="offset" />
          </mxGeometry>
        </mxCell>
        <mxCell id="WPUOntc3Nxlga1c-zfr1-87" style="edgeStyle=orthogonalEdgeStyle;rounded=0;orthogonalLoop=1;jettySize=auto;html=1;entryX=0.5;entryY=0;entryDx=0;entryDy=0;" edge="1" source="WPUOntc3Nxlga1c-zfr1-89" target="WPUOntc3Nxlga1c-zfr1-99" parent="WIyWlLk6GJQsqaUBKTNV-1">
          <mxGeometry relative="1" as="geometry" />
        </mxCell>
        <mxCell id="WPUOntc3Nxlga1c-zfr1-88" value="No" style="edgeLabel;html=1;align=center;verticalAlign=middle;resizable=0;points=[];" vertex="1" connectable="0" parent="WPUOntc3Nxlga1c-zfr1-87">
          <mxGeometry x="-0.1639" y="-1" relative="1" as="geometry">
            <mxPoint as="offset" />
          </mxGeometry>
        </mxCell>
        <mxCell id="WPUOntc3Nxlga1c-zfr1-89" value="&lt;div&gt;If birthYear % 100 == 0&lt;/div&gt;" style="rhombus;whiteSpace=wrap;html=1;" vertex="1" parent="WIyWlLk6GJQsqaUBKTNV-1">
          <mxGeometry x="264" y="1080" width="188" height="60" as="geometry" />
        </mxCell>
        <mxCell id="WPUOntc3Nxlga1c-zfr1-90" style="edgeStyle=orthogonalEdgeStyle;rounded=0;orthogonalLoop=1;jettySize=auto;html=1;" edge="1" source="WPUOntc3Nxlga1c-zfr1-94" target="WPUOntc3Nxlga1c-zfr1-101" parent="WIyWlLk6GJQsqaUBKTNV-1">
          <mxGeometry relative="1" as="geometry" />
        </mxCell>
        <mxCell id="WPUOntc3Nxlga1c-zfr1-91" value="Yes" style="edgeLabel;html=1;align=center;verticalAlign=middle;resizable=0;points=[];" vertex="1" connectable="0" parent="WPUOntc3Nxlga1c-zfr1-90">
          <mxGeometry x="-0.303" y="-1" relative="1" as="geometry">
            <mxPoint as="offset" />
          </mxGeometry>
        </mxCell>
        <mxCell id="WPUOntc3Nxlga1c-zfr1-92" style="edgeStyle=orthogonalEdgeStyle;rounded=0;orthogonalLoop=1;jettySize=auto;html=1;" edge="1" source="WPUOntc3Nxlga1c-zfr1-94" parent="WIyWlLk6GJQsqaUBKTNV-1">
          <mxGeometry relative="1" as="geometry">
            <mxPoint x="360" y="1321" as="targetPoint" />
            <Array as="points">
              <mxPoint x="760" y="1110" />
              <mxPoint x="760" y="1321" />
            </Array>
          </mxGeometry>
        </mxCell>
        <mxCell id="WPUOntc3Nxlga1c-zfr1-93" value="No" style="edgeLabel;html=1;align=center;verticalAlign=middle;resizable=0;points=[];" vertex="1" connectable="0" parent="WPUOntc3Nxlga1c-zfr1-92">
          <mxGeometry x="-0.9377" relative="1" as="geometry">
            <mxPoint as="offset" />
          </mxGeometry>
        </mxCell>
        <mxCell id="WPUOntc3Nxlga1c-zfr1-94" value="&lt;div&gt;If birthYear % 400 == 0&lt;/div&gt;" style="rhombus;whiteSpace=wrap;html=1;" vertex="1" parent="WIyWlLk6GJQsqaUBKTNV-1">
          <mxGeometry x="520" y="1080" width="188" height="60" as="geometry" />
        </mxCell>
        <mxCell id="WPUOntc3Nxlga1c-zfr1-95" value="" style="edgeStyle=orthogonalEdgeStyle;rounded=0;orthogonalLoop=1;jettySize=auto;html=1;" edge="1" source="WPUOntc3Nxlga1c-zfr1-99" parent="WIyWlLk6GJQsqaUBKTNV-1">
          <mxGeometry relative="1" as="geometry">
            <mxPoint x="358" y="1371" as="targetPoint" />
          </mxGeometry>
        </mxCell>
        <mxCell id="WPUOntc3Nxlga1c-zfr1-96" value="No" style="edgeLabel;html=1;align=center;verticalAlign=middle;resizable=0;points=[];" vertex="1" connectable="0" parent="WPUOntc3Nxlga1c-zfr1-95">
          <mxGeometry x="-0.6152" relative="1" as="geometry">
            <mxPoint as="offset" />
          </mxGeometry>
        </mxCell>
        <mxCell id="WPUOntc3Nxlga1c-zfr1-97" value="" style="edgeStyle=orthogonalEdgeStyle;rounded=0;orthogonalLoop=1;jettySize=auto;html=1;" edge="1" source="WPUOntc3Nxlga1c-zfr1-99" target="WPUOntc3Nxlga1c-zfr1-101" parent="WIyWlLk6GJQsqaUBKTNV-1">
          <mxGeometry relative="1" as="geometry" />
        </mxCell>
        <mxCell id="WPUOntc3Nxlga1c-zfr1-98" value="Yes" style="edgeLabel;html=1;align=center;verticalAlign=middle;resizable=0;points=[];" vertex="1" connectable="0" parent="WPUOntc3Nxlga1c-zfr1-97">
          <mxGeometry x="-0.5437" y="-1" relative="1" as="geometry">
            <mxPoint x="5" y="-1" as="offset" />
          </mxGeometry>
        </mxCell>
        <mxCell id="WPUOntc3Nxlga1c-zfr1-99" value="&lt;div&gt;If birthYear % 4 == 0&lt;/div&gt;" style="rhombus;whiteSpace=wrap;html=1;" vertex="1" parent="WIyWlLk6GJQsqaUBKTNV-1">
          <mxGeometry x="264" y="1201" width="188" height="60" as="geometry" />
        </mxCell>
        <mxCell id="WPUOntc3Nxlga1c-zfr1-100" style="edgeStyle=orthogonalEdgeStyle;rounded=0;orthogonalLoop=1;jettySize=auto;html=1;" edge="1" source="WPUOntc3Nxlga1c-zfr1-101" parent="WIyWlLk6GJQsqaUBKTNV-1">
          <mxGeometry relative="1" as="geometry">
            <mxPoint x="614" y="1321" as="targetPoint" />
          </mxGeometry>
        </mxCell>
        <mxCell id="WPUOntc3Nxlga1c-zfr1-101" value="isBirthLeapYear = True" style="rounded=0;whiteSpace=wrap;html=1;" vertex="1" parent="WIyWlLk6GJQsqaUBKTNV-1">
          <mxGeometry x="536" y="1206" width="156" height="50" as="geometry" />
        </mxCell>
      </root>
    </mxGraphModel>
  </diagram>
</mxfile>
